<?xml version="1.0" standalone="no"?>
<svg viewBox="0 0 200 200" xmlns="http://www.w3.org/2000/svg">
  <path fill="#FF0066" d="M20.6,-38.4C27.4,-31.8,34.1,-27.7,41,-21.7C47.9,-15.7,55.1,-7.8,61.1,3.4C67,14.7,71.7,29.4,66.1,37.8C60.6,46.2,44.8,48.3,32.1,57.3C19.4,66.3,9.7,82.2,-0.9,83.7C-11.4,85.1,-22.8,72.2,-37,64.1C-51.2,55.9,-68.1,52.5,-75.8,42.6C-83.5,32.7,-82,16.3,-73,5.2C-64.1,-6,-47.8,-12.1,-37.1,-16.8C-26.4,-21.5,-21.3,-24.8,-16.1,-32.3C-10.8,-39.8,-5.4,-51.4,0.7,-52.7C6.9,-54,13.8,-45,20.6,-38.4Z" transform="translate(100 100)" />
</svg>
